<svg width="54" height="51" viewBox="0 0 54 51" fill="none" xmlns="http://www.w3.org/2000/svg">
<g clip-path="url(#clip0_197402_507)">
<path d="M36.5002 14.0003H33.3335C33.3335 10.5012 30.4993 7.66699 27.0002 7.66699C23.501 7.66699 20.6668 10.5012 20.6668 14.0003H17.5002C15.7585 14.0003 14.3335 15.4253 14.3335 17.167V36.167C14.3335 37.9087 15.7585 39.3337 17.5002 39.3337H36.5002C38.2418 39.3337 39.6668 37.9087 39.6668 36.167V17.167C39.6668 15.4253 38.2418 14.0003 36.5002 14.0003ZM27.0002 10.8337C28.7418 10.8337 30.1668 12.2587 30.1668 14.0003H23.8335C23.8335 12.2587 25.2585 10.8337 27.0002 10.8337ZM36.5002 36.167H17.5002V17.167H20.6668V20.3337C20.6668 21.2045 21.3793 21.917 22.2502 21.917C23.121 21.917 23.8335 21.2045 23.8335 20.3337V17.167H30.1668V20.3337C30.1668 21.2045 30.8793 21.917 31.7502 21.917C32.621 21.917 33.3335 21.2045 33.3335 20.3337V17.167H36.5002V36.167Z" fill="#002F52"/>
</g>
<defs>
<clipPath id="clip0_197402_507">
<rect width="38" height="38" fill="white" transform="translate(8 4.5)"/>
</clipPath>
</defs>
</svg>
